<?xml version="1.0" encoding="UTF-8"?>
<svg width="100" height="60" viewBox="0 0 100 60" fill="none" xmlns="http://www.w3.org/2000/svg">
  <path d="M35.397 10H64.603V50H35.397V10Z" fill="#FF5F00"/>
  <path d="M36.9276 30C36.9276 22.0797 40.5689 15.0308 46.3793 10.608C41.5862 6.93244 35.5172 5.00001 29.1379 5.00001C13.9655 5.00001 2 16.193 2 30C2 43.807 13.9655 55.0001 29.1379 55.0001C35.5172 55.0001 41.5862 53.0676 46.3793 49.3921C40.5689 45.1495 36.9276 38.1203 36.9276 30Z" fill="#EB001B"/>
  <path d="M98 30C98 43.807 86.0345 55.0001 70.8621 55.0001C64.4828 55.0001 58.4138 53.0676 53.6207 49.3921C59.431 44.9693 63.0724 37.9204 63.0724 30C63.0724 22.0797 59.431 15.0308 53.6207 10.608C58.4138 6.93244 64.4828 5.00001 70.8621 5.00001C86.0345 5.00001 98 16.193 98 30Z" fill="#F79E1B"/>
</svg>
